<?xml version="1.0" encoding="UTF-8" standalone="no"?>
<svg
   version="1.0"
   width="852pt"
   height="231.93349pt"
   viewBox="0 0 852.00001 231.93349"
   preserveAspectRatio="xMidYMid"
   id="svg707"
   sodipodi:docname="logo-branco-extended.svg"
   inkscape:version="1.2.2 (732a01da63, 2022-12-09)"
   xmlns:inkscape="http://www.inkscape.org/namespaces/inkscape"
   xmlns:sodipodi="http://sodipodi.sourceforge.net/DTD/sodipodi-0.dtd"
   xmlns="http://www.w3.org/2000/svg"
   xmlns:svg="http://www.w3.org/2000/svg">
  <defs
     id="defs711" />
  <sodipodi:namedview
     id="namedview709"
     pagecolor="#ffffff"
     bordercolor="#000000"
     borderopacity="0.25"
     inkscape:showpageshadow="2"
     inkscape:pageopacity="0.0"
     inkscape:pagecheckerboard="0"
     inkscape:deskcolor="#d1d1d1"
     inkscape:document-units="pt"
     showgrid="false"
     inkscape:zoom="0.67018136"
     inkscape:cx="123.10101"
     inkscape:cy="-35.811202"
     inkscape:window-width="1920"
     inkscape:window-height="1009"
     inkscape:window-x="1912"
     inkscape:window-y="-8"
     inkscape:window-maximized="1"
     inkscape:current-layer="svg707" />
  <g
     transform="matrix(0.10305645,0,0,-0.10305645,-16.628823,234.41111)"
     fill="#000000"
     stroke="none"
     id="g705"
     style="fill:#ffffff">
    <path
       d="m 4988,2083 -3,-148 -70,-5 -70,-5 v -150 -150 l 70,-5 70,-5 6,-310 c 4,-263 8,-318 23,-360 35,-98 84,-153 174,-199 70,-35 138,-46 293,-46 h 140 l -3,157 -3,158 -103,5 c -152,7 -143,-13 -140,324 l 3,271 118,3 117,3 v 154 154 l -117,3 -118,3 -3,148 -3,147 h -189 -189 z"
       id="path689"
       style="fill:#ffffff" />
    <path
       d="m 3575,2066 c -147,-41 -269,-117 -374,-233 -97,-105 -206,-281 -187,-300 4,-5 40,-8 79,-7 101,1 164,29 272,117 215,176 329,236 420,223 61,-10 79,-26 78,-72 -1,-33 -8,-46 -51,-84 -244,-222 -607,-569 -630,-603 -47,-67 -90,-160 -112,-238 -19,-71 -46,-277 -36,-286 9,-9 1000,968 1028,1012 118,188 37,406 -176,478 -72,25 -210,21 -311,-7 z"
       id="path691"
       style="fill:#ffffff" />
    <path
       d="m 4396,1823 c -257,-265 -535,-549 -661,-672 -87,-86 -128,-168 -134,-269 -3,-66 0,-79 28,-137 89,-180 292,-235 550,-149 198,66 372,226 489,451 l 42,82 -35,7 c -105,19 -217,-27 -355,-146 -110,-95 -238,-182 -294,-200 -49,-16 -130,-8 -156,15 -12,11 -20,31 -20,49 0,33 -11,22 426,446 254,247 283,285 334,440 30,89 54,247 48,313 l -3,38 z"
       id="path693"
       style="fill:#ffffff" />
    <path
       d="m 2140,1941 c -78,-11 -177,-46 -246,-86 -353,-208 -367,-832 -24,-1065 178,-121 433,-144 635,-59 89,38 179,110 239,193 33,43 87,166 80,178 -3,4 -92,8 -198,8 h -193 l -23,-33 c -39,-57 -84,-81 -160,-85 -38,-2 -85,1 -106,8 -73,25 -144,122 -144,199 v 21 h 419 c 325,0 422,3 428,13 14,21 7,209 -11,276 -53,206 -207,362 -408,415 -71,18 -216,27 -288,17 z m 221,-324 c 54,-29 99,-90 106,-145 l 6,-42 h -232 c -258,0 -254,-1 -226,66 43,102 108,144 226,144 60,0 85,-5 120,-23 z"
       id="path695"
       style="fill:#ffffff" />
    <path
       d="m 6855,1939 c -302,-50 -488,-353 -445,-723 25,-214 120,-372 283,-470 184,-110 455,-76 591,74 38,43 40,41 36,-32 -4,-92 -14,-88 196,-88 h 184 v 615 615 h -184 c -210,0 -200,4 -196,-88 4,-76 2,-77 -41,-29 -51,59 -160,114 -249,127 -75,11 -106,11 -175,-1 z m 284,-335 c 71,-21 141,-90 166,-163 24,-74 18,-229 -12,-286 -110,-208 -407,-187 -487,34 -26,74 -20,219 12,281 31,59 58,87 107,113 76,39 135,45 214,21 z"
       id="path697"
       style="fill:#ffffff" />
    <path
       d="m 808,1921 c -73,-24 -134,-60 -177,-105 -19,-19 -38,-33 -43,-30 -4,3 -8,37 -8,75 v 69 l -185,-2 c -102,-2 -185,-6 -185,-10 0,-5 0,-280 0,-613 V 700 h 184 185 l 3,373 3,372 28,58 c 48,97 145,141 259,118 77,-16 129,-56 159,-122 24,-54 24,-57 27,-426 l 4,-373 h 184 185 l -3,433 c -3,426 -4,433 -27,500 -45,129 -142,232 -258,278 -82,32 -253,37 -335,10 z"
       id="path699"
       style="fill:#ffffff" />
    <path
       d="m 5828,1205 -3,-724 -22,-23 c -18,-18 -38,-23 -100,-27 l -78,-6 -3,-159 -3,-158 143,4 c 116,4 154,9 200,27 126,49 193,122 225,244 17,67 18,125 18,807 v 735 l -187,3 -188,2 z"
       id="path701"
       style="fill:#ffffff" />
    <path
       d="M 7980,1315 V 700 l 188,2 187,3 v 610 610 l -187,3 -188,2 z"
       id="path703"
       style="fill:#ffffff" />
  </g>
</svg>
