<?xml version="1.0" encoding="UTF-8" standalone="no"?>
<!-- Created with Inkscape (http://www.inkscape.org/) -->

<svg
   width="115mm"
   height="105mm"
   viewBox="0 0 115 105"
   version="1.1"
   id="svg390"
   inkscape:version="1.2.2 (732a01da63, 2022-12-09)"
   sodipodi:docname="logo-little.svg"
   xmlns:inkscape="http://www.inkscape.org/namespaces/inkscape"
   xmlns:sodipodi="http://sodipodi.sourceforge.net/DTD/sodipodi-0.dtd"
   xmlns="http://www.w3.org/2000/svg"
   xmlns:svg="http://www.w3.org/2000/svg">
  <sodipodi:namedview
     id="namedview392"
     pagecolor="#ffffff"
     bordercolor="#000000"
     borderopacity="0.25"
     inkscape:showpageshadow="2"
     inkscape:pageopacity="0.0"
     inkscape:pagecheckerboard="0"
     inkscape:deskcolor="#d1d1d1"
     inkscape:document-units="mm"
     showgrid="false"
     inkscape:zoom="1.0444209"
     inkscape:cx="186.2276"
     inkscape:cy="273.83595"
     inkscape:window-width="1536"
     inkscape:window-height="793"
     inkscape:window-x="-8"
     inkscape:window-y="-8"
     inkscape:window-maximized="1"
     inkscape:current-layer="layer1" />
  <defs
     id="defs387" />
  <g
     inkscape:label="Layer 1"
     inkscape:groupmode="layer"
     id="layer1">
    <path
       d="M 39.460009,3.9513416 C 29.78574,6.6496124 21.756755,11.651279 14.846563,19.2854 8.4628624,26.195588 1.2894261,37.778386 2.5398411,39.028794 2.8030863,39.35785 5.1722954,39.555288 7.7389384,39.48947 14.385885,39.42377 18.531999,37.580948 25.639625,31.789549 39.789065,20.206751 47.291558,16.258072 53.280392,17.113623 c 4.014491,0.658113 5.199096,1.711083 5.133284,4.73841 -0.06583,2.171778 -0.526489,3.027328 -3.356379,5.528162 C 38.999327,41.990303 15.109808,64.826843 13.596148,67.064439 10.503015,71.473792 7.6731273,77.594249 6.2252764,82.727535 4.9748614,87.400145 3.1979542,100.95729 3.8560691,101.54958 4.4483709,102.14187 69.667417,37.844186 71.510134,34.948497 79.275875,22.575965 73.945154,8.2290768 59.927338,3.490666 55.18892,1.8453832 46.106956,2.1086212 39.460009,3.9513416 Z"
       id="path691"
       style="fill:#000000;stroke:none;stroke-width:0.0658113" />
    <path
       d="M 93.491126,19.943513 C 76.577609,37.383511 58.282053,56.073934 49.989825,64.16873 c -5.725588,5.65978 -8.423854,11.056303 -8.818722,17.703254 -0.197433,4.343554 0,5.199104 1.842718,9.016164 C 48.87103,102.73418 62.230734,106.3538 79.210064,100.69402 92.24071,96.350473 103.69188,85.820663 111.39182,71.013117 l 2.76408,-5.396542 -2.30341,-0.460675 c -6.91018,-1.250409 -14.281063,1.776901 -23.363028,9.608459 -7.239248,6.252073 -15.663098,11.977672 -19.348535,13.162262 -3.224755,1.052988 -8.555475,0.526494 -10.266572,-0.987169 -0.789735,-0.723914 -1.316227,-2.04014 -1.316227,-3.224748 0,-2.171776 -0.723924,-1.447845 28.035637,-29.351871 16.716075,-16.25539 18.624615,-18.756224 21.981005,-28.956977 1.97433,-5.857218 3.5538,-16.2554106 3.15895,-20.5989638 l -0.19744,-2.5008335 z"
       id="path693"
       style="fill:#000000;stroke:none;stroke-width:0.0658113" />
  </g>
</svg>
