<svg width="216" height="32" viewBox="0 0 216 32" fill="none" xmlns="http://www.w3.org/2000/svg">
<path d="M24.865 10.58C24.865 12.41 24.445 14.09 23.605 15.62C22.765 17.12 21.475 18.335 19.735 19.265C17.995 20.195 15.835 20.66 13.255 20.66H8.485V32H0.79V0.409999H13.255C15.775 0.409999 17.905 0.844999 19.645 1.715C21.385 2.585 22.69 3.785 23.56 5.315C24.43 6.845 24.865 8.6 24.865 10.58ZM12.67 14.54C14.14 14.54 15.235 14.195 15.955 13.505C16.675 12.815 17.035 11.84 17.035 10.58C17.035 9.32 16.675 8.345 15.955 7.655C15.235 6.965 14.14 6.62 12.67 6.62H8.485V14.54H12.67ZM35.2161 0.409999V32H27.5211V0.409999H35.2161ZM58.7925 32L52.3575 22.325L46.6875 32H37.9575L48.0825 15.935L37.7325 0.409999H46.6875L53.0325 9.95L58.6125 0.409999H67.3425L57.3075 16.34L67.7475 32H58.7925ZM77.9555 6.575V12.965H88.2605V18.905H77.9555V25.835H89.6105V32H70.2605V0.409999H89.6105V6.575H77.9555ZM100.951 26.06H111.031V32H93.2562V0.409999H100.951V26.06ZM165.008 0.409999L156.773 32H147.458L142.418 11.21L137.198 32H127.883L119.873 0.409999H128.108L132.653 23.405L138.278 0.409999H146.738L152.138 23.405L156.728 0.409999H165.008ZM175.212 6.575V12.965H185.517V18.905H175.212V25.835H186.867V32H167.517V0.409999H186.867V6.575H175.212ZM209.637 15.8C211.467 16.19 212.937 17.105 214.047 18.545C215.157 19.955 215.712 21.575 215.712 23.405C215.712 26.045 214.782 28.145 212.922 29.705C211.092 31.235 208.527 32 205.227 32H190.512V0.409999H204.732C207.942 0.409999 210.447 1.145 212.247 2.615C214.077 4.085 214.992 6.08 214.992 8.6C214.992 10.46 214.497 12.005 213.507 13.235C212.547 14.465 211.257 15.32 209.637 15.8ZM198.207 13.19H203.247C204.507 13.19 205.467 12.92 206.127 12.38C206.817 11.81 207.162 10.985 207.162 9.905C207.162 8.825 206.817 8 206.127 7.43C205.467 6.86 204.507 6.575 203.247 6.575H198.207V13.19ZM203.877 25.79C205.167 25.79 206.157 25.505 206.847 24.935C207.567 24.335 207.927 23.48 207.927 22.37C207.927 21.26 207.552 20.39 206.802 19.76C206.082 19.13 205.077 18.815 203.787 18.815H198.207V25.79H203.877Z" fill="url(#paint0_linear_2130_958)"/>
<defs>
<linearGradient id="paint0_linear_2130_958" x1="87.0934" y1="-3.46798" x2="22.2131" y2="7.4595" gradientUnits="userSpaceOnUse">
<stop stop-color="#7F7F7F"/>
<stop offset="0.5" stop-color="#CECBCB"/>
<stop offset="1" stop-color="#7F7F7F"/>
</linearGradient>
</defs>
</svg>
