<svg width="15" height="24" viewBox="0 0 15 24" fill="none" xmlns="http://www.w3.org/2000/svg">
<path d="M11.9278 12.0381C10.8025 13.0132 9.38317 13.5834 7.89611 13.658C6.40904 13.7326 4.9398 13.3072 3.7226 12.4496C2.5054 11.5921 1.61031 10.3518 1.17999 8.9264C0.749682 7.501 0.808923 5.97257 1.34828 4.58475C1.88763 3.19694 2.87604 2.02962 4.15597 1.26887C5.43589 0.508129 6.93364 0.197749 8.41048 0.387209C9.88731 0.576669 11.2582 1.25506 12.3047 2.31425C13.3511 3.37344 14.0129 4.75246 14.1844 6.23147C14.7778 9.24814 14.7711 12.8431 13.4111 16.0648C11.9744 19.4648 9.0761 22.3315 4.12777 23.6265C3.96841 23.6698 3.80205 23.6811 3.63829 23.6598C3.47453 23.6385 3.31663 23.5849 3.17369 23.5022C3.03075 23.4195 2.90562 23.3093 2.80552 23.1779C2.70542 23.0466 2.63235 22.8967 2.59051 22.737C2.54867 22.5772 2.5389 22.4108 2.56177 22.2472C2.58464 22.0836 2.63968 21.9263 2.72373 21.7841C2.80778 21.6419 2.91917 21.5179 3.05145 21.419C3.18373 21.3201 3.33429 21.2485 3.49443 21.2081C7.71277 20.1031 9.9811 17.7581 11.1078 15.0915C11.5141 14.1142 11.7898 13.0875 11.9278 12.0381Z" fill="#090909"/>
</svg>
