<svg width="15" height="24" viewBox="0 0 15 24" fill="none" xmlns="http://www.w3.org/2000/svg">
<path d="M3.1943 12.0381C4.3196 13.0132 5.7389 13.5834 7.22597 13.658C8.71303 13.7326 10.1823 13.3072 11.3995 12.4497C12.6167 11.5921 13.5118 10.3518 13.9421 8.9264C14.3724 7.501 14.3131 5.97257 13.7738 4.58475C13.2344 3.19694 12.246 2.02962 10.9661 1.26887C9.68618 0.508129 8.18843 0.197749 6.7116 0.387209C5.23476 0.576669 3.86386 1.25506 2.81741 2.31425C1.77096 3.37344 1.10921 4.75246 0.937638 6.23147C0.344305 9.24814 0.350971 12.8431 1.71097 16.0648C3.14764 19.4648 6.04597 22.3315 10.9943 23.6265C11.1537 23.6698 11.32 23.6811 11.4838 23.6598C11.6475 23.6385 11.8054 23.5849 11.9484 23.5022C12.0913 23.4195 12.2165 23.3093 12.3165 23.178C12.4166 23.0466 12.4897 22.8967 12.5316 22.737C12.5734 22.5772 12.5832 22.4108 12.5603 22.2472C12.5374 22.0837 12.4824 21.9263 12.3983 21.7841C12.3143 21.6419 12.2029 21.5179 12.0706 21.419C11.9383 21.3201 11.7878 21.2485 11.6276 21.2081C7.4093 20.1031 5.14097 17.7581 4.0143 15.0915C3.60795 14.1142 3.33224 13.0875 3.1943 12.0381Z" fill="url(#paint0_linear_2025_8828)"/>
<defs>
<linearGradient id="paint0_linear_2025_8828" x1="0.561808" y1="0.333008" x2="20.9137" y2="12.2497" gradientUnits="userSpaceOnUse">
<stop offset="0.741"/>
<stop offset="1" stop-color="#01030F"/>
</linearGradient>
</defs>
</svg>
